<?xml version="1.0" standalone="no"?>
<!DOCTYPE svg PUBLIC "-//W3C//DTD SVG 20010904//EN"
 "http://www.w3.org/TR/2001/REC-SVG-20010904/DTD/svg10.dtd">
<svg version="1.0" xmlns="http://www.w3.org/2000/svg"
 width="1090.000000pt" height="1090.000000pt" viewBox="0 0 1090.000000 1090.000000"
 preserveAspectRatio="xMidYMid meet">
<metadata>
Created by potrace 1.11, written by Peter Selinger 2001-2013
</metadata>
<g transform="translate(0.000000,1090.000000) scale(0.100000,-0.100000)"
fill="#000000" stroke="none">
<path d="M814 9035 c-147 -40 -273 -160 -320 -305 -16 -52 -17 -191 -19 -2388
l-1 -2333 21 -41 c14 -27 34 -48 60 -62 39 -20 47 -20 2646 -20 2566 0 2608 0
2644 19 20 11 46 36 58 55 l22 35 0 2317 c1 1770 -2 2331 -11 2376 -32 155
-143 280 -301 337 l-67 25 -2341 -1 c-1962 0 -2348 -2 -2391 -14z"/>
<path d="M6606 8095 c-98 -20 -175 -82 -220 -175 l-21 -45 -3 -2222 -2 -2223
-1177 0 -1176 0 49 -47 c61 -59 126 -135 161 -188 14 -22 34 -51 43 -65 53
-79 134 -289 155 -400 4 -19 9 -43 11 -52 5 -15 94 -16 1244 -16 l1238 0 17
76 c55 250 175 466 356 643 406 396 1023 466 1510 172 107 -64 126 -79 245
-198 97 -96 168 -195 229 -314 52 -104 114 -297 118 -368 0 -9 154 -11 642
-10 l641 2 36 24 c63 44 63 40 66 341 4 305 0 325 -62 371 -30 23 -38 24 -243
27 l-213 3 -1 1047 c0 1156 0 1156 -30 1292 -41 188 -97 294 -380 715 -140
207 -258 384 -264 393 -5 9 -12 19 -15 22 -3 3 -9 13 -15 22 -5 10 -38 58 -72
108 -35 49 -63 94 -63 99 0 5 -4 11 -8 13 -5 2 -68 93 -142 203 -73 110 -157
232 -185 270 -88 118 -238 255 -349 315 -22 13 -59 33 -81 45 -102 55 -284
108 -418 122 -110 10 -1566 9 -1621 -2z m1821 -838 c18 -9 44 -34 59 -54 58
-79 89 -123 212 -298 123 -176 306 -437 366 -524 17 -23 36 -50 41 -60 6 -9
12 -18 15 -21 28 -26 123 -179 127 -205 12 -76 -22 -142 -88 -169 -28 -11
-201 -13 -1014 -12 -709 1 -987 5 -1007 13 -14 7 -39 29 -55 49 l-28 37 0 571
c0 449 3 578 13 602 18 43 68 78 122 84 25 3 306 5 625 4 522 0 583 -2 612
-17z"/>
<path d="M200 3422 c-39 -18 -63 -40 -81 -74 -17 -34 -19 -61 -19 -302 0 -297
3 -312 68 -356 l36 -25 875 0 875 0 18 80 c25 111 25 110 48 173 65 174 182
350 315 474 l40 38 -1080 -1 c-594 0 -1087 -3 -1095 -7z"/>
<path d="M3040 3419 c-337 -51 -649 -319 -749 -643 -21 -68 -26 -89 -40 -177
-8 -51 -6 -236 3 -265 3 -11 8 -37 12 -59 22 -142 133 -344 258 -471 115 -116
324 -228 486 -259 85 -17 285 -14 372 5 362 79 636 342 728 699 19 72 25 131
25 236 -1 156 -22 254 -85 391 -129 280 -382 479 -685 539 -56 12 -260 14
-325 4z m297 -489 c167 -59 281 -188 317 -361 21 -103 10 -191 -39 -294 -58
-121 -167 -214 -294 -251 -55 -16 -210 -22 -231 -9 -5 3 -19 8 -30 10 -43 8
-147 66 -186 103 -101 96 -155 219 -155 352 0 85 26 180 65 244 116 187 355
276 553 206z"/>
<path d="M7960 3410 c-47 -10 -116 -30 -155 -45 -68 -27 -175 -82 -185 -94 -3
-4 -27 -23 -55 -43 -123 -89 -233 -236 -297 -395 -48 -122 -68 -239 -64 -385
2 -69 6 -130 9 -135 4 -5 9 -25 12 -44 30 -180 167 -399 330 -529 183 -146
403 -218 625 -207 134 7 168 13 260 44 150 51 272 126 378 233 312 314 365
802 130 1177 -209 332 -604 501 -988 423z m272 -465 c148 -20 310 -155 358
-300 20 -58 21 -64 27 -133 23 -265 -199 -506 -462 -503 -115 1 -163 14 -250
66 -80 48 -140 115 -181 200 -76 158 -61 338 41 480 24 33 55 69 70 80 15 11
33 25 39 31 34 32 134 72 201 81 22 3 41 6 42 7 4 3 54 -1 115 -9z"/>
</g>
</svg>
